<svg width="317" height="469" viewBox="0 0 317 469" fill="none" xmlns="http://www.w3.org/2000/svg">
<path d="M229.921 247.381C214.699 247.381 201.052 254.121 191.707 264.732L167.759 247.79C170.302 240.795 171.761 233.284 171.761 225.423C171.761 217.698 170.352 210.313 167.894 203.422L191.787 186.658C201.132 197.216 214.743 203.92 229.921 203.92C258.018 203.92 280.88 181.075 280.88 152.992C280.88 124.909 258.018 102.064 229.921 102.064C201.825 102.064 178.963 124.909 178.963 152.992C178.963 158.019 179.723 162.866 181.087 167.456L157.177 184.228C147.19 171.845 132.809 163.198 116.424 160.559V131.761C139.507 126.915 156.899 106.419 156.899 81.9277C156.899 53.8444 134.037 31 105.941 31C77.8443 31 54.9825 53.8444 54.9825 81.9277C54.9825 106.091 71.9241 126.334 94.5451 131.526V160.698C63.6734 166.114 40.1204 193.04 40.1204 225.423C40.1204 257.963 63.9066 284.988 95.0012 290.22V321.024C72.1489 326.044 54.9825 346.412 54.9825 370.74C54.9825 398.823 77.8443 421.667 105.941 421.667C134.037 421.667 156.899 398.823 156.899 370.74C156.899 346.412 139.733 326.044 116.88 321.024V290.219C132.619 287.569 146.857 279.293 156.944 266.932L181.051 283.985C179.713 288.534 178.963 293.333 178.963 298.309C178.963 326.392 201.825 349.236 229.921 349.236C258.018 349.236 280.88 326.392 280.88 298.309C280.88 270.225 258.018 247.381 229.921 247.381ZM229.921 128.3C243.546 128.3 254.627 139.379 254.627 152.992C254.627 166.605 243.546 177.683 229.921 177.683C216.297 177.683 205.215 166.605 205.215 152.992C205.215 139.379 216.297 128.3 229.921 128.3ZM81.2338 81.9277C81.2338 68.3151 92.3162 57.2365 105.941 57.2365C119.565 57.2365 130.647 68.3151 130.647 81.9277C130.647 95.5404 119.565 106.619 105.941 106.619C92.3162 106.619 81.2338 95.5404 81.2338 81.9277ZM130.647 370.74C130.647 384.352 119.565 395.431 105.941 395.431C92.3162 395.431 81.2338 384.352 81.2338 370.74C81.2338 357.127 92.3162 346.048 105.941 346.048C119.565 346.048 130.647 357.127 130.647 370.74ZM105.939 259.859C86.9367 259.859 71.4783 244.413 71.4783 225.423C71.4783 206.432 86.9367 190.983 105.939 190.983C124.94 190.983 140.398 206.432 140.398 225.423C140.398 244.413 124.94 259.859 105.939 259.859ZM229.921 323.001C216.297 323.001 205.215 311.921 205.215 298.309C205.215 284.696 216.297 273.617 229.921 273.617C243.546 273.617 254.627 284.696 254.627 298.309C254.627 311.921 243.546 323.001 229.921 323.001Z" fill="#040404"/>
</svg>
