<svg width="243" height="205" viewBox="0 0 243 205" fill="none" xmlns="http://www.w3.org/2000/svg">
<path d="M55.4564 203.13L120.124 109.323L99.7425 77.4155L40.1706 148.114C20.386 171.602 17.2008 177.453 0.680786 205L55.4762 203.13H55.4564Z" fill="url(#paint0_linear_2_39)"/>
<path d="M216.002 205L242.215 204.901L124.404 0.188004L181.29 205H216.022H216.002ZM124.384 0.188004L94.5878 49.4305L100.579 39.5389L124.384 0.20784V0.188004Z" fill="url(#paint1_linear_2_39)"/>
<path d="M99.7227 77.4155L181.269 205L124.384 0.188004L100.599 39.5184L0.661011 205L99.7227 77.4155Z" fill="url(#paint2_linear_2_39)"/>
<defs>
<linearGradient id="paint0_linear_2_39" x1="95.746" y1="81.3511" x2="28.1883" y2="290.33" gradientUnits="userSpaceOnUse">
<stop stop-color="#A92F33"/>
<stop offset="1" stop-color="#E62129"/>
</linearGradient>
<linearGradient id="paint1_linear_2_39" x1="133.699" y1="21.0272" x2="203.126" y2="184.177" gradientUnits="userSpaceOnUse">
<stop stop-color="#A92F33"/>
<stop offset="1" stop-color="#E8443F"/>
</linearGradient>
<linearGradient id="paint2_linear_2_39" x1="54.4703" y1="146.79" x2="127.475" y2="58.4131" gradientUnits="userSpaceOnUse">
<stop stop-color="#E62129"/>
<stop offset="1" stop-color="#E8443F"/>
</linearGradient>
</defs>
</svg>
