<svg width="241" height="209" viewBox="0 0 241 209" fill="none" xmlns="http://www.w3.org/2000/svg">
<g clip-path="url(#clip0_2_40)">
<path d="M30.3357 51.6295L60.2579 0.0183791L180.758 0.00268555L210.518 52.1264L210.555 156.394L180.763 208.488L60.2998 208.529L30.0321 156.4L30.3357 51.6295Z" fill="#4D4D4D"/>
<path d="M30.0373 156.385H84.3432L54.5153 103.858L78.7733 51.64L30.3409 51.6295L0 104.282" fill="#EDEDED"/>
<path d="M210.817 51.6295H156.511L186.34 104.156L162.081 156.374L210.513 156.385L240.855 103.732" fill="#EDEDED"/>
<path d="M100.812 156.385H140.507L175.607 105.26L141.119 52.1317H94.4255L66.2988 103.471L100.812 156.385Z" fill="#E0E0E0"/>
<path d="M0 104.276L30.0373 156.4H84.3485L54.8451 104.454L0 104.276Z" fill="#ACACAC"/>
<path d="M66.8695 104.287L100.817 156.4H140.507L175.057 104.308L66.8695 104.287Z" fill="#9E9E9E"/>
<path d="M80.3124 104.313L70.0678 107.295L60.2368 104.308L100.372 34.7849L110.412 52.1422" fill="#00B8E3"/>
<path d="M110.371 156.385L100.383 173.815L73.7218 145.111L60.2161 104.324V104.302H80.3072" fill="#33C6E9"/>
<path d="M60.2421 104.308H60.2211V104.324L50.186 121.702L40.109 104.402L50.3274 86.689L80.3124 34.7955H100.383" fill="#008AAA"/>
<path d="M100.393 173.835H80.3072L50.186 121.696L60.2212 104.329L100.393 173.835Z" fill="#00B8E3"/>
<path d="M180.7 104.308L140.554 173.82C136.864 168.4 130.54 156.4 130.54 156.4L160.656 104.297L180.7 104.308Z" fill="#008AAA"/>
<path d="M160.604 173.82L140.554 173.815L180.706 104.302L190.735 86.9454L200.797 104.418M180.7 104.308H160.661L130.535 52.1369L140.507 34.8007L164.891 65.7799L180.7 104.308Z" fill="#00B8E3"/>
<path d="M190.735 86.935V86.9506L180.7 104.308L140.513 34.806L160.62 34.8163L190.735 86.935Z" fill="#33C6E9"/>
</g>
<defs>
<clipPath id="clip0_2_40">
<rect width="241" height="209" fill="white"/>
</clipPath>
</defs>
</svg>
