<svg width="491" height="766" viewBox="0 0 491 766" fill="none" xmlns="http://www.w3.org/2000/svg">
<path d="M274.231 116.304C274.231 116.304 319.712 189.556 334.913 215.59C335.158 216.014 335.054 216.575 334.688 216.94C334.227 217.401 333.533 217.451 333.076 216.99L254.711 135.031L274.231 116.304Z" fill="#F15A29"/>
<path d="M140.254 383.229C153.555 355.088 171.498 329.627 193.702 307.422C202.148 298.981 211.063 291.159 220.414 283.972V341.969L140.254 383.229ZM93.9709 436.793L220.413 372.423V519.571L248.907 557V357.767L266.213 348.865C274.186 344.86 281.663 339.53 288.314 332.875C321.273 299.92 321.797 246.725 289.776 213.196L224.455 145.142C221.851 142.358 220.484 138.715 220.604 134.885C220.724 131.03 222.336 127.449 225.14 124.807C230.924 119.368 240.138 119.735 245.575 125.513L254.711 135.035L274.231 116.303C251.167 86.3926 222.947 90.1483 206.601 105.112C198.542 112.698 193.914 122.971 193.565 134.037C193.216 145.121 197.208 155.664 204.798 163.728L204.885 163.823L270.547 232.223C292.141 255.204 291.709 291.345 269.247 313.807C265.744 317.309 261.906 320.276 257.839 322.71L248.908 327.304V234.341C221.589 248.42 196.677 266.507 174.713 288.475C147.358 315.827 125.88 347.686 110.875 383.163C103.514 400.564 97.8717 418.481 93.9709 436.793Z" fill="white"/>
<path d="M248.908 357.765V387.842L220.414 402.303V372.422L248.908 357.765Z" fill="#BCBEC0"/>
</svg>
