<svg width="241" height="463" viewBox="0 0 241 463" fill="none" xmlns="http://www.w3.org/2000/svg">
<path d="M180.251 22.8958C180.251 22.8958 225.671 96.0493 240.851 122.049C241.096 122.472 240.992 123.032 240.627 123.397C240.166 123.853 239.473 123.907 239.017 123.446L160.756 41.597L180.251 22.8958Z" fill="#F15A29"/>
<path d="M46.453 289.462C59.7368 261.359 77.6552 235.932 99.8301 213.757C108.264 205.327 117.167 197.515 126.506 190.338V248.257L46.453 289.462ZM0.233032 342.954L126.506 278.671V425.621L154.961 463V264.034L172.245 255.144C180.206 251.144 187.673 245.822 194.316 239.176C227.231 206.264 227.754 153.141 195.776 119.656L130.542 51.693C127.941 48.9134 126.576 45.2748 126.696 41.4497C126.816 37.5998 128.426 34.0237 131.227 31.385C137.002 25.9547 146.204 26.3198 151.634 32.0903L160.757 41.5994L180.252 22.8974C157.219 -6.97742 129.036 -3.22676 112.712 11.7166C104.664 19.2924 100.042 29.5517 99.6932 40.6035C99.3449 51.6722 103.332 62.2013 110.912 70.2542L110.999 70.3494L176.573 138.657C198.137 161.608 197.706 197.705 175.274 220.133C171.776 223.63 167.943 226.592 163.882 229.023L154.962 233.611V140.773C127.68 154.833 102.801 172.896 80.867 194.835C53.5484 222.149 32.0996 253.965 17.1146 289.395C9.76219 306.774 4.1286 324.671 0.233032 342.954Z" fill="black"/>
</svg>
