<svg width="240" height="240" viewBox="0 0 240 240" fill="none" xmlns="http://www.w3.org/2000/svg">
<g clip-path="url(#clip0_4_16)">
<path d="M231.515 88.125C226.829 88.125 223.031 91.9237 223.031 96.6097C223.031 166.43 166.43 223.031 96.6097 223.031C91.9237 223.031 88.125 226.829 88.125 231.515C88.125 236.201 91.9237 240 96.6097 240C175.802 240 240 175.802 240 96.6097C240 91.9237 236.201 88.125 231.515 88.125Z" fill="#005EB8"/>
<path d="M180.305 142.5C188.464 129.189 196.356 111.442 194.803 86.5954C191.587 35.1272 144.971 -3.91736 100.952 0.313998C83.7198 1.97049 66.0255 16.017 67.5975 41.1769C68.2807 52.1104 73.632 58.5634 82.329 63.5246C90.6067 68.247 101.242 71.2384 113.298 74.6291C127.861 78.7253 144.753 83.3261 157.736 92.8939C173.297 104.361 183.934 117.654 180.305 142.5Z" fill="#003B5C"/>
<path d="M14.6948 52.5C6.53535 65.8106 -1.35565 83.5583 0.196849 108.405C3.41277 159.873 50.0291 198.917 94.0477 194.686C111.28 193.029 128.974 178.983 127.402 153.823C126.719 142.89 121.368 136.437 112.671 131.475C104.393 126.753 93.7583 123.762 81.702 120.371C67.1393 116.275 50.2466 111.674 37.2635 102.106C21.703 90.639 11.066 77.3464 14.6948 52.5Z" fill="#005EB8"/>
</g>
<defs>
<clipPath id="clip0_4_16">
<rect width="240" height="240" fill="white"/>
</clipPath>
</defs>
</svg>
