<svg width="240" height="240" viewBox="0 0 240 240" fill="none" xmlns="http://www.w3.org/2000/svg">
<g clip-path="url(#clip0_4_20)">
<path d="M230.597 175.259C217.789 181.935 151.44 209.215 137.315 216.579C123.189 223.944 115.342 223.873 104.183 218.539C93.0253 213.204 22.4184 184.684 9.69937 178.604C3.34312 175.567 0 173.002 0 170.579V146.32C0 146.32 91.9219 126.309 106.762 120.985C121.6 115.661 126.749 115.469 139.377 120.095C152.007 124.722 227.519 138.346 240 142.917L239.994 166.833C239.996 169.231 237.116 171.862 230.597 175.259Z" fill="#912626"/>
<path d="M230.592 151.144C217.785 157.817 151.438 185.098 137.313 192.461C123.188 199.827 115.342 199.755 104.183 194.421C93.0244 189.09 22.4203 160.565 9.70222 154.489C-3.0159 148.409 -3.28215 144.225 9.21097 139.333C21.7041 134.439 91.921 106.891 106.763 101.567C121.601 96.2447 126.749 96.0506 139.377 100.678C152.006 105.304 217.958 131.555 230.437 136.125C242.92 140.701 243.399 144.469 230.592 151.144Z" fill="#C6302B"/>
<path d="M230.597 136.007C217.789 142.684 151.44 169.963 137.315 177.33C123.189 184.692 115.342 184.621 104.183 179.287C93.0244 173.955 22.4184 145.432 9.69937 139.352C3.34312 136.314 0 133.753 0 131.33V107.068C0 107.068 91.9219 87.0581 106.762 81.7341C121.6 76.41 126.749 76.2169 139.377 80.8434C152.008 85.47 227.52 99.0909 240 103.663L239.994 127.582C239.996 129.979 237.116 132.609 230.597 136.007Z" fill="#912626"/>
<path d="M230.592 111.892C217.785 118.567 151.438 145.846 137.313 153.212C123.188 160.575 115.342 160.503 104.183 155.168C93.0244 149.838 22.4203 121.313 9.70222 115.237C-3.0159 109.159 -3.28215 104.974 9.21097 100.08C21.7041 95.1891 91.9219 67.6388 106.763 62.3156C121.601 56.9925 126.749 56.7994 139.377 61.4259C152.006 66.0516 217.958 92.3006 230.437 96.8728C242.92 101.448 243.399 105.217 230.592 111.892Z" fill="#C6302B"/>
<path d="M230.597 95.2997C217.789 101.975 151.44 129.256 137.315 136.623C123.189 143.986 115.342 143.914 104.183 138.579C93.0244 133.248 22.4184 104.723 9.69937 98.6465C3.34312 95.6062 0 93.0441 0 90.6234V66.3609C0 66.3609 91.9219 46.3519 106.762 41.0287C121.6 35.7037 126.749 35.5125 139.377 40.1381C152.008 44.7647 227.52 58.3856 240 62.9578L239.994 86.8753C239.996 89.2706 237.116 91.9012 230.597 95.2997Z" fill="#912626"/>
<path d="M230.592 71.1844C217.785 77.8594 151.438 105.141 137.313 112.504C123.189 119.867 115.342 119.795 104.184 114.463C93.0254 109.129 22.4204 80.6062 9.70318 74.5284C-3.01588 68.4516 -3.2812 64.2656 9.21099 59.3728C21.7041 54.4809 91.9219 26.9344 106.763 21.6094C121.601 16.2853 126.749 16.0941 139.377 20.7206C152.006 25.3472 217.958 51.5962 230.437 56.1684C242.92 60.7397 243.399 64.5094 230.592 71.1844Z" fill="#C6302B"/>
<path d="M149.328 47.5847L128.693 49.7269L124.074 60.8419L116.614 48.4388L92.7871 46.2975L110.566 39.8859L105.231 30.0441L121.877 36.5541L137.569 31.4166L133.327 41.5931L149.328 47.5847ZM122.842 101.508L84.3327 85.5356L139.514 77.0653L122.842 101.508ZM69.4518 53.7628C85.7408 53.7628 98.9455 58.8816 98.9455 65.1947C98.9455 71.5097 85.7408 76.6275 69.4518 76.6275C53.1627 76.6275 39.958 71.5088 39.958 65.1947C39.958 58.8816 53.1627 53.7628 69.4518 53.7628Z" fill="white"/>
<path d="M173.714 50.6231L206.373 63.5288L173.742 76.4222L173.714 50.6231Z" fill="#621B1C"/>
<path d="M137.583 64.9153L173.714 50.6231L173.742 76.4222L170.199 77.8078L137.583 64.9153Z" fill="#9A2928"/>
</g>
<defs>
<clipPath id="clip0_4_20">
<rect width="240" height="240" fill="white"/>
</clipPath>
</defs>
</svg>
